<svg width="36" height="37" viewBox="0 0 36 37" fill="none" xmlns="http://www.w3.org/2000/svg">
<rect width="36" height="37" rx="18" fill="#18A0FB"/>
<path d="M8.41347 10.0103C7.95898 8.4456 10.2315 6.60562 9.78118 5.60436C6.57858 5.05388 1.67215 10.5543 5.32502 12.9426C5.77951 13.1897 5.72032 13.6426 5.80699 14.0045C6.10294 16.3018 8.5086 16.2996 9.53597 14.6677C9.5106 9.4707 14.343 5.21209 19.3298 5.72139C27.1619 5.95978 30.8972 16.8371 24.4054 21.6679C23.6528 22.2335 24.9677 22.7732 25.0966 23.4016C25.5892 25.285 23.2237 24.9707 22.1625 24.5026C17.2941 23.0007 20.6785 26.6287 14.4086 29.0018C16.2118 30.0052 18.2454 31.0108 19.8583 32.4802C23.5365 29.6173 22.1878 31.026 26.5087 31.8452C30.5738 31.9817 27.868 28.8046 29.5908 28.0113C30.3307 27.6993 29.2082 26.5463 29.7938 26.2386C30.3688 25.9026 30.4787 25.558 30.2504 24.9274C29.9988 24.2815 30.3814 23.6877 30.986 23.4732C33.2057 21.6007 28.2739 19.5245 29.5464 17.0473C32.1064 4.15882 14.2183 -0.745626 8.41347 10.0103Z" fill="#C5E2FF"/>
<path d="M19.5367 19.4484C19.2513 16.7437 16.945 15.0901 14.0235 15.0901C12.8968 15.0901 11.7891 15.4823 10.8907 16.1672C10.6307 15.2374 10.525 14.2579 10.6349 13.2653C11.0556 9.44227 14.5668 6.65088 19.0018 6.65088C22.9655 6.65088 26.7959 9.85404 26.7959 14.3662C26.7959 18.8784 22.7646 21.2212 22.7646 21.2212L24.1429 23.6333C24.1429 23.6333 21.4371 23.4946 18.7017 22.8791C19.3041 21.8822 19.6677 20.6794 19.5367 19.4484Z" fill="#36C6F4"/>
<path d="M8.88635 20.1766C8.88635 18.484 9.70445 17.0732 10.8904 16.1694C11.626 18.7939 13.6046 21.0002 15.5389 21.8779C16.4796 22.3049 17.5915 22.6321 18.6992 22.8792C18.0714 23.9108 17.1835 24.7257 16.3062 25.1244C14.1543 26.1019 10.6367 26.2817 10.6367 26.2817L11.5436 24.6932C11.5436 24.6932 8.88635 23.1501 8.88635 20.1766Z" fill="#2A3891"/>
<path d="M10.8905 16.167C11.7889 15.4821 12.8987 15.0898 14.0234 15.0898C16.9469 15.0898 19.2511 16.7434 19.5365 19.4481C19.6654 20.6791 19.304 21.8798 18.6973 22.8767C17.5896 22.6275 16.4776 22.3024 15.5369 21.8754C13.6027 20.9977 11.624 18.7915 10.8905 16.167Z" fill="#0080FF"/>
</svg>
