<svg width="14" height="14" viewBox="0 0 14 14" fill="none" xmlns="http://www.w3.org/2000/svg">
<path fill-rule="evenodd" clip-rule="evenodd" d="M2.91797 1.1665H11.0846C12.0763 1.1665 12.8346 1.92484 12.8346 2.9165V8.74984C12.8346 9.7415 12.0763 10.4998 11.0846 10.4998H4.31797L2.15964 12.6582C2.04297 12.7748 1.9263 12.8332 1.7513 12.8332C1.69297 12.8332 1.5763 12.8332 1.51797 12.7748C1.28464 12.7165 1.16797 12.4832 1.16797 12.2498V2.9165C1.16797 1.92484 1.9263 1.1665 2.91797 1.1665ZM11.0846 9.33317C11.4346 9.33317 11.668 9.09984 11.668 8.74984V2.9165C11.668 2.5665 11.4346 2.33317 11.0846 2.33317H2.91797C2.56797 2.33317 2.33464 2.5665 2.33464 2.9165V10.8498L3.6763 9.50817C3.79297 9.3915 3.90964 9.33317 4.08464 9.33317H11.0846Z" fill="black"/>
<mask id="mask0_5832_72511" style="mask-type:alpha" maskUnits="userSpaceOnUse" x="1" y="1" width="12" height="12">
<path fill-rule="evenodd" clip-rule="evenodd" d="M2.91797 1.1665H11.0846C12.0763 1.1665 12.8346 1.92484 12.8346 2.9165V8.74984C12.8346 9.7415 12.0763 10.4998 11.0846 10.4998H4.31797L2.15964 12.6582C2.04297 12.7748 1.9263 12.8332 1.7513 12.8332C1.69297 12.8332 1.5763 12.8332 1.51797 12.7748C1.28464 12.7165 1.16797 12.4832 1.16797 12.2498V2.9165C1.16797 1.92484 1.9263 1.1665 2.91797 1.1665ZM11.0846 9.33317C11.4346 9.33317 11.668 9.09984 11.668 8.74984V2.9165C11.668 2.5665 11.4346 2.33317 11.0846 2.33317H2.91797C2.56797 2.33317 2.33464 2.5665 2.33464 2.9165V10.8498L3.6763 9.50817C3.79297 9.3915 3.90964 9.33317 4.08464 9.33317H11.0846Z" fill="white"/>
</mask>
<g mask="url(#mask0_5832_72511)">
<rect width="14" height="14" rx="4" fill="url(#paint0_linear_5832_72511)"/>
</g>
<defs>
<linearGradient id="paint0_linear_5832_72511" x1="-1.68" y1="6.99999" x2="16.66" y2="6.99999" gradientUnits="userSpaceOnUse">
<stop stop-color="#18A0FB"/>
<stop offset="1" stop-color="#2DDEAC"/>
</linearGradient>
</defs>
</svg>
