<svg width="18" height="14" viewBox="0 0 18 14" fill="none" xmlns="http://www.w3.org/2000/svg">
<path d="M1.60892 0.272461H16.3914C16.8281 0.272461 17.182 0.626406 17.182 1.06302C17.182 1.49963 16.8281 1.85358 16.3914 1.85358H1.60892C1.1723 1.85358 0.818359 1.49963 0.818359 1.06302C0.818359 0.626406 1.1723 0.272461 1.60892 0.272461ZM1.60892 5.01582H16.3914C16.8281 5.01582 17.182 5.36977 17.182 5.80638C17.182 6.243 16.8281 6.59694 16.3914 6.59694H1.60892C1.1723 6.59694 0.818359 6.243 0.818359 5.80638C0.818359 5.36977 1.1723 5.01582 1.60892 5.01582Z" fill="#18A0FB"/>
<path d="M9.50063 9.75345H1.60807C1.17145 9.75345 0.817511 10.1074 0.817511 10.544C0.817511 10.9806 1.17145 11.3346 1.60807 11.3346H9.50063C9.93725 11.3346 10.2912 10.9806 10.2912 10.544C10.2912 10.1074 9.93725 9.75345 9.50063 9.75345ZM17.1094 13.7063V8.96289L13.1566 11.3346L17.1094 13.7063Z" fill="#18A0FB"/>
</svg>
