<svg width="18" height="14" viewBox="0 0 18 14" fill="none" xmlns="http://www.w3.org/2000/svg">
<path d="M1.60892 0.272461H16.3914C16.828 0.272461 17.182 0.626406 17.182 1.06302C17.182 1.49963 16.828 1.85358 16.3914 1.85358H1.60892C1.1723 1.85358 0.818359 1.49963 0.818359 1.06302C0.818359 0.626406 1.1723 0.272461 1.60892 0.272461ZM1.60892 5.01582H16.3914C16.828 5.01582 17.182 5.36977 17.182 5.80638C17.182 6.243 16.828 6.59694 16.3914 6.59694H1.60892C1.1723 6.59694 0.818359 6.243 0.818359 5.80638C0.818359 5.36977 1.1723 5.01582 1.60892 5.01582ZM8.4271 9.75918H16.3197C16.7563 9.75918 17.1102 10.1131 17.1102 10.5497C17.1102 10.9864 16.7563 11.3403 16.3197 11.3403H8.4271C7.99049 11.3403 7.63654 10.9864 7.63654 10.5497C7.63654 10.1131 7.99049 9.75918 8.4271 9.75918ZM0.818359 13.712V8.96863L4.77116 11.3403L0.818359 13.712Z" fill="#18A0FB"/>
</svg>
