<svg width="536" height="200" viewBox="0 0 536 200" fill="none" xmlns="http://www.w3.org/2000/svg">
<rect width="536" height="200" rx="6" fill="#FCFCFC"/>
<mask id="mask0_6681_240466" style="mask-type:alpha" maskUnits="userSpaceOnUse" x="0" y="0" width="536" height="200">
<rect width="536" height="200" rx="6" fill="white"/>
</mask>
<g mask="url(#mask0_6681_240466)">
<path fill-rule="evenodd" clip-rule="evenodd" d="M215 52C215 45.3726 220.373 40 227 40H334.842C341.469 40 346.842 45.3726 346.842 52V286.687C346.842 300.57 335.587 311.824 321.705 311.824H240.137C226.254 311.824 215 300.57 215 286.687V52Z" fill="#BCF8FF"/>
<path fill-rule="evenodd" clip-rule="evenodd" d="M219.755 59.9697C219.755 55.5515 223.337 51.9697 227.755 51.9697H333.654C338.073 51.9697 341.654 55.5514 341.654 59.9697V284.904C341.654 295.133 333.362 303.426 323.132 303.426H238.277C228.047 303.426 219.755 295.133 219.755 284.904V59.9697Z" fill="white"/>
<mask id="mask1_6681_240466" style="mask-type:alpha" maskUnits="userSpaceOnUse" x="219" y="51" width="123" height="253">
<path fill-rule="evenodd" clip-rule="evenodd" d="M219.755 59.9697C219.755 55.5515 223.337 51.9697 227.755 51.9697H333.654C338.073 51.9697 341.654 55.5514 341.654 59.9697V284.904C341.654 295.133 333.362 303.426 323.132 303.426H238.277C228.047 303.426 219.755 295.133 219.755 284.904V59.9697Z" fill="white"/>
</mask>
<g mask="url(#mask1_6681_240466)">
</g>
<path d="M293.295 44.4346C294.422 44.4346 295.337 45.3065 295.337 46.3821C295.337 47.4337 294.463 48.2907 293.369 48.3283L293.295 48.3296H257.134C256.007 48.3296 255.092 47.4576 255.092 46.3821C255.092 45.3304 255.966 44.4734 257.06 44.4359L257.134 44.4346H293.295Z" fill="#56CDD9"/>
<path d="M299.937 44.1094C301.065 44.1094 301.979 45.0176 301.979 46.138C301.979 47.2335 301.105 48.1262 300.012 48.1653L299.937 48.1667H299.83C298.702 48.1667 297.788 47.2584 297.788 46.138C297.788 45.0425 298.662 44.1498 299.755 44.1107L299.83 44.1094H299.937Z" fill="#56CDD9"/>
<path fill-rule="evenodd" clip-rule="evenodd" d="M357 175C357 171.686 359.686 169 363 169H380.485L388 176.789V200C388 203.314 385.314 206 382 206H363C359.686 206 357 203.314 357 200V175Z" fill="#AEDDF9"/>
<ellipse opacity="0.462821" cx="367.521" cy="193.116" rx="3.1" ry="3.11579" fill="white"/>
<ellipse opacity="0.462821" cx="374.954" cy="191.77" rx="3.1" ry="3.11579" fill="white"/>
<path opacity="0.462821" fill-rule="evenodd" clip-rule="evenodd" d="M378.054 181.726V191.536H376.892L376.891 184.111L370.612 186.156V193.022H369.45L369.45 184.528L378.054 181.726Z" fill="white"/>
<path opacity="0.33996" d="M388 176.789H383.485C381.828 176.789 380.485 175.446 380.485 173.789V169L388 176.789Z" fill="#4EA3D6"/>
<path fill-rule="evenodd" clip-rule="evenodd" d="M320.419 107.752C320.419 101.814 315.606 97 309.667 97H251.048C245.109 97 240.296 101.814 240.296 107.752V179.83C240.296 185.768 245.109 190.582 251.048 190.582H309.667C315.606 190.582 320.419 185.768 320.419 179.83V107.752Z" fill="#B8E1F9"/>
<path fill-rule="evenodd" clip-rule="evenodd" d="M314.359 114.455C314.359 108.691 309.687 104.019 303.923 104.019H257.699C251.935 104.019 247.263 108.691 247.263 114.455C247.263 120.219 251.935 124.892 257.699 124.892H303.923C309.687 124.892 314.359 120.219 314.359 114.455Z" fill="#E3F4FF"/>
<path fill-rule="evenodd" clip-rule="evenodd" d="M309.823 114.382C309.823 110.597 306.755 107.528 302.969 107.528H302.162C298.377 107.528 295.308 110.597 295.308 114.382C295.308 118.168 298.377 121.237 302.162 121.237H302.969C306.755 121.237 309.823 118.168 309.823 114.382Z" fill="#BFE7FF"/>
<path fill-rule="evenodd" clip-rule="evenodd" d="M314.359 141.872C314.359 136.108 309.687 131.436 303.923 131.436H257.699C251.935 131.436 247.263 136.108 247.263 141.872C247.263 147.636 251.935 152.309 257.699 152.309H303.923C309.687 152.309 314.359 147.636 314.359 141.872Z" fill="#E3F4FF"/>
<path fill-rule="evenodd" clip-rule="evenodd" d="M309.823 141.799C309.823 138.013 306.755 134.944 302.969 134.944H302.162C298.377 134.944 295.308 138.013 295.308 141.799C295.308 145.584 298.377 148.653 302.162 148.653H302.969C306.755 148.653 309.823 145.584 309.823 141.799Z" fill="#F88080"/>
<path d="M299.429 143.929C299.246 144.113 299.246 144.388 299.429 144.571C299.521 144.663 299.613 144.709 299.75 144.709C299.888 144.709 299.979 144.663 300.071 144.571L302.5 142.142L304.929 144.571C305.021 144.663 305.113 144.709 305.25 144.709C305.388 144.709 305.479 144.663 305.571 144.571C305.754 144.388 305.754 144.113 305.571 143.929L303.142 141.5L305.571 139.071C305.754 138.888 305.754 138.613 305.571 138.429C305.388 138.246 305.113 138.246 304.929 138.429L302.5 140.859L300.071 138.429C299.888 138.246 299.613 138.246 299.429 138.429C299.246 138.613 299.246 138.888 299.429 139.071L301.858 141.5L299.429 143.929Z" fill="black"/>
<mask id="mask2_6681_240466" style="mask-type:alpha" maskUnits="userSpaceOnUse" x="299" y="138" width="7" height="7">
<path d="M299.429 143.929C299.246 144.113 299.246 144.388 299.429 144.571C299.521 144.663 299.613 144.709 299.75 144.709C299.888 144.709 299.979 144.663 300.071 144.571L302.5 142.142L304.929 144.571C305.021 144.663 305.113 144.709 305.25 144.709C305.388 144.709 305.479 144.663 305.571 144.571C305.754 144.388 305.754 144.113 305.571 143.929L303.142 141.5L305.571 139.071C305.754 138.888 305.754 138.613 305.571 138.429C305.388 138.246 305.113 138.246 304.929 138.429L302.5 140.859L300.071 138.429C299.888 138.246 299.613 138.246 299.429 138.429C299.246 138.613 299.246 138.888 299.429 139.071L301.858 141.5L299.429 143.929Z" fill="white"/>
</mask>
<g mask="url(#mask2_6681_240466)">
<rect width="11" height="11" transform="matrix(-1 0 0 1 308 136)" fill="white"/>
</g>
<path fill-rule="evenodd" clip-rule="evenodd" d="M314.359 169.288C314.359 163.524 309.687 158.852 303.923 158.852H257.699C251.935 158.852 247.263 163.524 247.263 169.288C247.263 175.052 251.935 179.725 257.699 179.725H303.923C309.687 179.725 314.359 175.052 314.359 169.288Z" fill="#E3F4FF"/>
<path fill-rule="evenodd" clip-rule="evenodd" d="M309.823 169.215C309.823 165.43 306.755 162.361 302.969 162.361H302.162C298.377 162.361 295.308 165.43 295.308 169.215C295.308 173.001 298.377 176.07 302.162 176.07H302.969C306.755 176.07 309.823 173.001 309.823 169.215Z" fill="#BFE7FF"/>
<path fill-rule="evenodd" clip-rule="evenodd" d="M366 89C366 85.6863 368.686 83 372 83H404C407.314 83 410 85.6863 410 89V114C410 117.314 407.314 120 404 120H372C368.686 120 366 117.314 366 114V89Z" fill="#EA5455" fill-opacity="0.110632"/>
<path fill-rule="evenodd" clip-rule="evenodd" d="M395.15 109.15C396.983 107.317 398.083 104.842 398.083 102C398.083 96.4087 393.592 91.917 388 91.917C385.25 91.917 382.683 93.017 380.85 94.8503C379.017 96.6837 377.917 99.2503 377.917 102C377.917 107.592 382.408 112.084 388 112.084C390.75 112.084 393.317 110.984 395.15 109.15ZM396.25 102C396.25 103.925 395.608 105.759 394.417 107.134L382.867 95.5837C384.242 94.392 386.075 93.7503 388 93.7503C392.583 93.7503 396.25 97.417 396.25 102ZM381.583 96.867C380.392 98.242 379.75 100.075 379.75 102C379.75 106.584 383.417 110.25 388 110.25C389.925 110.25 391.758 109.517 393.133 108.417L381.583 96.867Z" fill="black"/>
<mask id="mask3_6681_240466" style="mask-type:alpha" maskUnits="userSpaceOnUse" x="377" y="91" width="22" height="22">
<path fill-rule="evenodd" clip-rule="evenodd" d="M395.15 109.15C396.983 107.317 398.083 104.842 398.083 102C398.083 96.4087 393.592 91.917 388 91.917C385.25 91.917 382.683 93.017 380.85 94.8503C379.017 96.6837 377.917 99.2503 377.917 102C377.917 107.592 382.408 112.084 388 112.084C390.75 112.084 393.317 110.984 395.15 109.15ZM396.25 102C396.25 103.925 395.608 105.759 394.417 107.134L382.867 95.5837C384.242 94.392 386.075 93.7503 388 93.7503C392.583 93.7503 396.25 97.417 396.25 102ZM381.583 96.867C380.392 98.242 379.75 100.075 379.75 102C379.75 106.584 383.417 110.25 388 110.25C389.925 110.25 391.758 109.517 393.133 108.417L381.583 96.867Z" fill="white"/>
</mask>
<g mask="url(#mask3_6681_240466)">
<rect x="377" y="91" width="22" height="22" fill="#EA5455"/>
</g>
<path fill-rule="evenodd" clip-rule="evenodd" d="M178.734 162.968C178.734 162.968 166.405 230.582 164.243 237.622C162.081 244.663 156.085 297.621 156.085 297.621L143.134 297.658C143.134 297.658 142.859 256.892 144.167 250.34C145.475 243.788 148.428 232.998 148.428 232.998C148.428 232.998 150.622 193.826 151.935 184.689C153.247 175.551 157.46 162.007 157.46 162.007L178.734 162.968Z" fill="#33373E"/>
<path fill-rule="evenodd" clip-rule="evenodd" d="M166.927 194.553C170.303 206.525 173.054 235.763 173.054 235.763C173.054 235.763 173.365 238.843 172.02 247.376C170.675 255.908 175.975 297.426 175.975 297.426L189.923 297.454C189.923 297.454 191.644 241.679 191.725 235.812C191.853 226.666 194.869 163.249 194.869 163.249L165.859 162.6C165.859 162.6 163.551 182.58 166.927 194.553Z" fill="#42474F"/>
<path fill-rule="evenodd" clip-rule="evenodd" d="M187.266 187.249L187.321 187.484C189.325 195.771 185.888 232.501 186.867 241.235L187.256 244.359C187.936 249.974 189.087 260.211 190.709 275.068L191.06 262.632C191.383 250.813 191.658 239.692 191.717 236.309L191.725 235.813C191.853 226.666 194.869 163.25 194.869 163.25L189.442 163.129L189.204 164.155C186.809 174.663 186.163 182.361 187.266 187.249Z" fill="white" fill-opacity="0.192499"/>
<path fill-rule="evenodd" clip-rule="evenodd" d="M187.971 80.0591C190.976 80.3853 190.763 85.628 187.105 85.9017C186.357 90.9557 183.691 93.3637 180.441 93.6423L180.621 101.287L166.244 101.278C166.244 101.278 170.292 95.878 170.091 88.485C169.889 81.0917 170.226 74.1465 170.226 74.1465L188.848 74.4781L187.971 80.0591Z" fill="#FBCCCC"/>
<path fill-rule="evenodd" clip-rule="evenodd" d="M189.413 76.9446C190.709 77.5658 189.677 80.3729 189.021 80.3729C186.012 79.1917 183.516 83.4449 182.248 87.7165C178.646 91.2241 170.687 91.3018 169.864 88.3676C166.751 81.9411 166.599 72.6486 170.231 71.9315C167.38 64.4635 205.892 60.5569 189.413 76.9446Z" fill="#33373E"/>
<path fill-rule="evenodd" clip-rule="evenodd" d="M186.197 88.7652C186.049 88.4432 185.167 90.6476 183.741 91.8293C182.266 93.0521 180.051 93.4102 180.441 93.6421C183.434 95.422 187.402 91.3889 186.197 88.7652Z" fill="url(#paint0_linear_6681_240466)"/>
<path fill-rule="evenodd" clip-rule="evenodd" d="M130.391 115.554C130.391 115.554 131.02 111.303 130.82 108.506C130.451 103.333 131.157 98.9697 130.016 98.2909C128.553 97.4203 128.187 105.144 128.187 105.144C128.187 105.144 119.83 91.485 118.088 93.1354C116.345 94.7854 119.98 101.963 119.403 104.039C118.827 106.114 124.586 116.152 124.586 116.152L130.391 115.554Z" fill="#FBCCCC"/>
<path fill-rule="evenodd" clip-rule="evenodd" d="M161.284 118.009C161.284 118.009 148.625 137.777 145.829 141.611C142.895 145.632 137.715 147.412 134.038 140.998C130.787 135.324 123.824 121.115 122.943 116.698C122.285 113.402 129.019 108.49 132.256 113.415C135.492 118.339 140.604 125.744 140.604 125.744C140.604 125.744 149.009 110.455 151.63 106.847C158.696 97.119 169.462 105.855 161.284 118.009Z" fill="#32AAFB"/>
<path fill-rule="evenodd" clip-rule="evenodd" d="M140.604 125.744L137.823 130.552L138.836 123.131L140.604 125.744Z" fill="black" fill-opacity="0.159856"/>
<path d="M132.02 113.574C129.079 112.641 126.387 113.138 124.238 116.771" stroke="#5386BF" stroke-linecap="round"/>
<path fill-rule="evenodd" clip-rule="evenodd" d="M167.351 98.2061L182.243 98.3013L182.853 98.5437C185.309 99.539 194.433 103.414 196.133 106.733C198.973 112.279 195.231 156.712 196.862 159.393C200.303 165.049 195.808 168.95 180.872 170.425L180.416 170.469C165.116 171.91 151.542 170.73 154.005 163.106C156.469 155.481 148.931 106.37 156 102.977L167.351 98.2061Z" fill="#67BEF9"/>
<path fill-rule="evenodd" clip-rule="evenodd" d="M183.412 109.459C181.205 114.204 185.588 126.553 196.558 146.505L196.694 142.048C197.053 130.922 197.581 117.36 196.918 110.535C189.989 105.355 185.487 104.995 183.412 109.459Z" fill="black" fill-opacity="0.159856"/>
<path fill-rule="evenodd" clip-rule="evenodd" d="M183.245 96.9039C182.319 96.6543 166.805 96.9039 166.189 96.9039C165.572 96.9039 165.572 99.5083 166.189 99.5083C166.565 99.5083 171.377 99.4374 183.246 99.2955C184.317 99.2827 187.175 100.479 187.175 100.479C187.175 100.479 184.172 97.1535 183.245 96.9039Z" fill="#32AAFB"/>
<path fill-rule="evenodd" clip-rule="evenodd" d="M243.344 142.098C243.344 142.098 251.457 143.369 252.988 142.121C254.519 140.873 260.615 132.387 259.949 130.926C259.283 129.467 253.721 132.555 253.247 131.626C252.637 130.433 255.783 126.178 253.027 125.93C252.317 125.866 251.815 128.485 249.817 130.21C247.818 131.936 242.994 135.763 242.994 135.763L243.344 142.098Z" fill="#FBCCCC"/>
<path fill-rule="evenodd" clip-rule="evenodd" d="M194.309 104.742C201.321 111.326 211.25 126.872 213.365 128.242C215.481 129.612 241.945 132.374 244.437 134.604C246.518 136.467 246.706 142.134 244.437 143.706C242.168 145.278 212.372 143.171 206.908 141.6C201.443 140.029 192.083 125.633 187.902 121.139C176.209 108.572 187.297 98.1586 194.309 104.742Z" fill="#32AAFB"/>
<path d="M241.684 133.691C242.994 135.204 243.655 137.408 242.994 141.715" stroke="#5386BF" stroke-linecap="round"/>
</g>
<defs>
<linearGradient id="paint0_linear_6681_240466" x1="188.311" y1="96.9675" x2="176.976" y2="98.7586" gradientUnits="userSpaceOnUse">
<stop stop-color="#4D63A0"/>
<stop offset="1" stop-color="#222735"/>
</linearGradient>
</defs>
</svg>
