<svg width="79" height="26" viewBox="0 0 79 26" fill="none" xmlns="http://www.w3.org/2000/svg">
<path d="M20.0066 6.28758C19.4936 5.09804 18.6386 3.9085 17.7836 3.05882C16.7576 2.20915 15.7317 1.35948 14.5347 0.849673C13.1667 0.339869 11.7987 0 10.4308 0C8.89181 0 7.69483 0.339869 6.32686 0.849673C5.12989 1.35948 3.93291 2.03922 3.07793 3.05882C2.05196 3.9085 1.36797 5.09804 0.854981 6.28758C0.341993 7.47712 0 8.8366 0 10.366V26H5.30089V20.732H15.3897V26H20.6906V10.366C20.8615 8.8366 20.5196 7.47712 20.0066 6.28758ZM15.3897 15.4641H5.30089V10.366C5.30089 9.68627 5.47188 9.00654 5.64288 8.3268C5.98487 7.81699 6.32686 7.13726 6.83985 6.79739C7.35284 6.28758 7.86583 5.94771 8.37882 5.77778C9.0628 5.60784 9.74679 5.43791 10.4308 5.43791C11.1148 5.43791 11.7987 5.60784 12.4827 5.77778C12.9957 5.94771 13.5087 6.28758 14.0217 6.79739C14.5347 7.30719 14.8767 7.81699 15.0477 8.3268C15.3897 9.00654 15.3897 9.68627 15.3897 10.366V15.4641Z" fill="white"/>
<path d="M49.9315 4.9281C49.5895 3.9085 48.9055 3.05882 48.2215 2.37909C47.5375 1.69935 46.5116 1.01961 45.6566 0.679739C44.6306 0.169935 43.6046 0 42.4076 0C41.3817 0 40.3557 0.169935 39.3297 0.509804C38.3037 0.849673 37.4487 1.52941 36.7648 2.03922C36.0808 1.35948 35.2258 0.849673 34.1998 0.509804C33.3448 0.169935 32.1479 0 31.1219 0C29.9249 0 28.8989 0.169935 27.873 0.679739C26.847 1.01961 25.992 1.69935 25.308 2.37909C24.624 3.05882 23.94 3.9085 23.598 4.9281C23.0851 5.94771 22.9141 6.96732 22.9141 8.15686V26H28.2149V7.64706C28.3859 6.96732 28.7279 6.28758 29.2409 5.94771C29.7539 5.43791 30.4379 5.26797 31.1219 5.26797C31.9769 5.26797 32.6609 5.60784 33.1738 6.11765C33.8578 6.62745 34.1998 7.30719 34.1998 8.15686V26H39.5007V7.81699C39.5007 7.13725 39.8427 6.45752 40.5267 5.94771C41.0397 5.43791 41.7237 5.09804 42.5786 5.09804C43.2626 5.09804 43.9466 5.26797 44.6306 5.77778C45.1436 6.28758 45.4856 6.96732 45.6566 7.64706V25.8301H50.9575V8.15686C50.6155 6.96732 50.4445 5.94771 49.9315 4.9281Z" fill="white"/>
<path d="M77.9733 7.98692C77.2893 6.4575 76.2633 5.09803 75.2373 3.90848C74.0404 2.71894 72.6724 1.86927 71.1334 1.18953C69.5945 0.509791 67.8845 0.169922 66.0035 0.169922C64.1226 0.169922 62.5836 0.509791 60.8736 1.18953C59.3347 1.86927 57.7957 2.88888 56.7697 3.90848C55.5728 5.09803 54.7178 6.4575 54.0338 7.98692C53.3498 9.51633 53.0078 11.2157 53.0078 13.085C53.0078 14.7843 53.3498 16.4836 54.0338 18.183C54.7178 19.7124 55.5728 21.2418 56.7697 22.2614C57.9667 23.451 59.3347 24.3006 60.8736 24.9804C62.4126 25.6601 64.1226 26 66.0035 26C67.7135 26 69.4235 25.6601 71.1334 24.9804C72.6724 24.3006 74.0404 23.451 75.2373 22.2614C76.4343 21.0719 77.2893 19.7124 77.9733 18.183C78.6573 16.6536 78.9993 14.9542 78.9993 13.085C78.9993 11.2157 78.6573 9.51633 77.9733 7.98692ZM68.9105 20.2222C67.8845 20.5621 66.8585 20.9019 65.8325 20.9019C65.1486 20.9019 64.4646 20.732 63.7806 20.5621L59.8477 22.2614C59.8477 22.2614 59.8477 22.2614 59.6767 22.2614C59.5057 22.2614 59.5057 22.2614 59.5057 22.2614C59.3347 22.0915 59.3347 22.0915 59.3347 21.9216L59.6767 17.8431C59.3347 17.3333 58.8217 16.6536 58.6507 15.9738C58.3087 15.1242 58.1377 14.1046 58.1377 13.085C58.1377 12.0653 58.3087 11.0457 58.8217 10.0261C59.1637 9.00652 59.8477 8.32679 60.5317 7.64705C61.2156 6.96731 62.0706 6.28757 62.9256 5.9477C63.9516 5.60783 64.9776 5.26796 66.0035 5.26796C67.0295 5.26796 68.0555 5.4379 69.0815 5.9477C69.9364 6.28757 70.7914 6.96731 71.4754 7.64705C72.1594 8.32679 72.8434 9.17646 73.1854 10.0261C73.5274 10.8758 73.6984 11.8954 73.6984 13.085C73.6984 14.1046 73.5274 15.1242 73.0144 16.1438C72.6724 17.1634 71.9884 17.8431 71.3044 18.5229C70.7914 19.2026 69.9364 19.7124 68.9105 20.2222C69.0815 20.2222 68.9105 20.2222 68.9105 20.2222Z" fill="white"/>
</svg>
